# xmcd
#
# Track frame offsets: 
#        150
#        18536
#        35697
#        58669
#        79400
#        95541
#        116384
#        135829
#        152045
#        174544
#        188221
#        207804
#
# Disc length: 3023 seconds
#
# Revision: 0
# Processed by: cddbd v1.5.2PL0 Copyright (c) Steve Scherf et al.
# Submitted via: ExactAudioCopy v0.99pb5
#
DISCID=9b0bcd0c
DTITLE=Mark Wayne Glasmire - Life goes on
DYEAR=2009
DGENRE=Country
TTITLE0=True love knows
TTITLE1=You opened my eyes
TTITLE2=I'll be gone (Going out)
TTITLE3=Shelter from the storm
TTITLE4=Ain't love a funny thing
TTITLE5=I believe in you
TTITLE6=Life goes on
TTITLE7=Everything is gonna be alright
TTITLE8=Missing you
TTITLE9=This must be love
TTITLE10=Our love remains
TTITLE11=Zihuatanejo
EXTD=
EXTT0=
EXTT1=
EXTT2=
EXTT3=
EXTT4=
EXTT5=
EXTT6=
EXTT7=
EXTT8=
EXTT9=
EXTT10=
EXTT11=
PLAYORDER=
